<svg width="24" height="24" viewBox="0 0 24 24" fill="none" xmlns="http://www.w3.org/2000/svg">
<path d="M17.9659 6.50445C17.9588 6.38213 17.9069 6.26669 17.8203 6.18004C17.7337 6.0934 17.6182 6.04159 17.4959 6.03445C12.7378 5.75507 8.92653 7.18757 7.30153 9.87507C6.73826 10.7944 6.46069 11.8603 6.50403 12.9376C6.53965 13.9326 6.82965 14.9376 7.3659 15.9282L6.14653 17.1469C6.05271 17.2408 6 17.368 6 17.5007C6 17.6334 6.05271 17.7606 6.14653 17.8544C6.24035 17.9483 6.3676 18.001 6.50028 18.001C6.63296 18.001 6.76021 17.9483 6.85403 17.8544L8.07278 16.6351C9.06278 17.1707 10.0684 17.4607 11.0628 17.4963C11.1324 17.4988 11.2017 17.5001 11.2709 17.5001C12.2782 17.5028 13.2665 17.2254 14.1253 16.6988C16.8128 15.0738 18.2459 11.2632 17.9659 6.50445ZM13.6097 15.8438C12.1878 16.7051 10.5047 16.7188 8.81528 15.8919L14.3547 10.3532C14.4011 10.3067 14.438 10.2516 14.4631 10.1909C14.4882 10.1302 14.5012 10.0651 14.5012 9.99945C14.5012 9.93375 14.4882 9.8687 14.4631 9.808C14.438 9.7473 14.4011 9.69215 14.3547 9.6457C14.3082 9.59924 14.253 9.56239 14.1924 9.53725C14.1317 9.51211 14.0666 9.49917 14.0009 9.49917C13.9352 9.49917 13.8702 9.51211 13.8095 9.53725C13.7488 9.56239 13.6936 9.59924 13.6472 9.6457L8.1084 15.1876C7.28403 13.5001 7.2959 11.8126 8.15653 10.3932C9.53715 8.11382 12.819 6.8657 16.9884 7.01445C17.1378 11.1807 15.889 14.4632 13.6097 15.8438Z" fill="#1F6A46"/>
</svg>
