<svg width="24" height="24" viewBox="0 0 24 24" fill="none" xmlns="http://www.w3.org/2000/svg">
<path d="M12 7C11.8517 7 11.7067 7.04399 11.5833 7.1264C11.46 7.20881 11.3639 7.32594 11.3071 7.46299C11.2503 7.60003 11.2355 7.75083 11.2644 7.89632C11.2934 8.0418 11.3648 8.17544 11.4697 8.28033C11.5746 8.38522 11.7082 8.45665 11.8537 8.48559C11.9992 8.51453 12.15 8.49968 12.287 8.44291C12.4241 8.38614 12.5412 8.29001 12.6236 8.16668C12.706 8.04334 12.75 7.89834 12.75 7.75C12.75 7.55109 12.671 7.36032 12.5303 7.21967C12.3897 7.07902 12.1989 7 12 7ZM12 11.25C11.8517 11.25 11.7067 11.294 11.5833 11.3764C11.46 11.4588 11.3639 11.5759 11.3071 11.713C11.2503 11.85 11.2355 12.0008 11.2644 12.1463C11.2934 12.2918 11.3648 12.4254 11.4697 12.5303C11.5746 12.6352 11.7082 12.7067 11.8537 12.7356C11.9992 12.7645 12.15 12.7497 12.287 12.6929C12.4241 12.6361 12.5412 12.54 12.6236 12.4167C12.706 12.2933 12.75 12.1483 12.75 12C12.75 11.8011 12.671 11.6103 12.5303 11.4697C12.3897 11.329 12.1989 11.25 12 11.25ZM12 15.5C11.8517 15.5 11.7067 15.544 11.5833 15.6264C11.46 15.7088 11.3639 15.8259 11.3071 15.963C11.2503 16.1 11.2355 16.2508 11.2644 16.3963C11.2934 16.5418 11.3648 16.6754 11.4697 16.7803C11.5746 16.8852 11.7082 16.9567 11.8537 16.9856C11.9992 17.0145 12.15 16.9997 12.287 16.9429C12.4241 16.8861 12.5412 16.79 12.6236 16.6667C12.706 16.5433 12.75 16.3983 12.75 16.25C12.75 16.0511 12.671 15.8603 12.5303 15.7197C12.3897 15.579 12.1989 15.5 12 15.5Z" fill="#E2E2E2"/>
</svg>
