<svg width="24" height="24" viewBox="0 0 24 24" fill="none" xmlns="http://www.w3.org/2000/svg">
<path d="M12.75 12C12.75 12.1484 12.706 12.2934 12.6236 12.4167C12.5412 12.54 12.4241 12.6362 12.287 12.6929C12.15 12.7497 11.9992 12.7645 11.8537 12.7356C11.7082 12.7067 11.5746 12.6352 11.4697 12.5303C11.3648 12.4255 11.2933 12.2918 11.2644 12.1463C11.2355 12.0009 11.2503 11.8501 11.3071 11.713C11.3639 11.576 11.46 11.4588 11.5833 11.3764C11.7067 11.294 11.8517 11.25 12 11.25C12.1989 11.25 12.3897 11.329 12.5303 11.4697C12.671 11.6103 12.75 11.8011 12.75 12ZM9.25 11.25C9.10166 11.25 8.95666 11.294 8.83332 11.3764C8.70999 11.4588 8.61386 11.576 8.55709 11.713C8.50032 11.8501 8.48547 12.0009 8.51441 12.1463C8.54335 12.2918 8.61478 12.4255 8.71967 12.5303C8.82456 12.6352 8.9582 12.7067 9.10368 12.7356C9.24917 12.7645 9.39997 12.7497 9.53701 12.6929C9.67406 12.6362 9.79119 12.54 9.8736 12.4167C9.95601 12.2934 10 12.1484 10 12C10 11.8011 9.92098 11.6103 9.78033 11.4697C9.63968 11.329 9.44891 11.25 9.25 11.25ZM14.75 11.25C14.6017 11.25 14.4567 11.294 14.3333 11.3764C14.21 11.4588 14.1139 11.576 14.0571 11.713C14.0003 11.8501 13.9855 12.0009 14.0144 12.1463C14.0434 12.2918 14.1148 12.4255 14.2197 12.5303C14.3246 12.6352 14.4582 12.7067 14.6037 12.7356C14.7492 12.7645 14.9 12.7497 15.037 12.6929C15.1741 12.6362 15.2912 12.54 15.3736 12.4167C15.456 12.2934 15.5 12.1484 15.5 12C15.5 11.8011 15.421 11.6103 15.2803 11.4697C15.1397 11.329 14.9489 11.25 14.75 11.25ZM18.5 12C18.5002 13.1222 18.2099 14.2254 17.6574 15.2021C17.1048 16.1788 16.3087 16.9959 15.3467 17.5737C14.3847 18.1515 13.2894 18.4703 12.1676 18.4993C11.0458 18.5282 9.93554 18.2662 8.945 17.7388L6.81687 18.4481C6.64068 18.5069 6.4516 18.5154 6.27083 18.4728C6.09006 18.4301 5.92474 18.3379 5.79341 18.2066C5.66207 18.0753 5.56991 17.91 5.52725 17.7292C5.48459 17.5484 5.49312 17.3593 5.55187 17.1831L6.26125 15.055C5.79759 14.1833 5.53862 13.2174 5.504 12.2306C5.46937 11.2439 5.66 10.2622 6.06142 9.3601C6.46283 8.45802 7.06448 7.65924 7.8207 7.02439C8.57691 6.38954 9.46782 5.93532 10.4258 5.69619C11.3838 5.45707 12.3836 5.43932 13.3495 5.64431C14.3153 5.8493 15.2218 6.27163 16.0001 6.87925C16.7783 7.48687 17.4079 8.2638 17.8411 9.15108C18.2743 10.0384 18.4996 11.0127 18.5 12ZM17.5 12C17.4998 11.1563 17.3054 10.324 16.9321 9.56748C16.5587 8.81093 16.0163 8.15042 15.3468 7.63704C14.6773 7.12366 13.8986 6.77119 13.0711 6.60689C12.2436 6.44258 11.3894 6.47086 10.5745 6.68952C9.75968 6.90818 9.00606 7.31137 8.37197 7.86789C7.73788 8.42441 7.24032 9.11935 6.91779 9.89893C6.59525 10.6785 6.45639 11.5219 6.51193 12.3637C6.56748 13.2055 6.81595 14.0233 7.23812 14.7538C7.27356 14.8151 7.29556 14.8832 7.30267 14.9537C7.30978 15.0242 7.30184 15.0954 7.27937 15.1625L6.5 17.5L8.8375 16.7206C8.88841 16.7033 8.94183 16.6944 8.99562 16.6944C9.08344 16.6945 9.16966 16.7178 9.24562 16.7619C10.0817 17.2457 11.0305 17.5007 11.9965 17.5013C12.9625 17.5019 13.9116 17.2481 14.7484 16.7654C15.5851 16.2827 16.2799 15.5881 16.763 14.7516C17.246 13.915 17.5002 12.966 17.5 12Z" fill="#E2E2E2"/>
<circle cx="17" cy="7" r="4" fill="#2AA76B"/>
</svg>
