<svg width="24" height="24" viewBox="0 0 24 24" fill="none" xmlns="http://www.w3.org/2000/svg">
<path d="M17.3846 5.5H6.61538C6.18696 5.5 5.77608 5.6712 5.47314 5.97595C5.17019 6.2807 5 6.69402 5 7.125V14.7083C5 15.1393 5.17019 15.5526 5.47314 15.8574C5.77608 16.1621 6.18696 16.3333 6.61538 16.3333H17.3846C17.813 16.3333 18.2239 16.1621 18.5269 15.8574C18.8298 15.5526 19 15.1393 19 14.7083V7.125C19 6.69402 18.8298 6.2807 18.5269 5.97595C18.2239 5.6712 17.813 5.5 17.3846 5.5ZM17.9231 14.7083C17.9231 14.852 17.8663 14.9898 17.7654 15.0914C17.6644 15.1929 17.5274 15.25 17.3846 15.25H6.61538C6.47258 15.25 6.33562 15.1929 6.23463 15.0914C6.13365 14.9898 6.07692 14.852 6.07692 14.7083V7.125C6.07692 6.98134 6.13365 6.84357 6.23463 6.74198C6.33562 6.6404 6.47258 6.58333 6.61538 6.58333H17.3846C17.5274 6.58333 17.6644 6.6404 17.7654 6.74198C17.8663 6.84357 17.9231 6.98134 17.9231 7.125V14.7083ZM14.6923 17.9583C14.6923 18.102 14.6356 18.2398 14.5346 18.3414C14.4336 18.4429 14.2967 18.5 14.1538 18.5H9.84615C9.70335 18.5 9.56639 18.4429 9.4654 18.3414C9.36442 18.2398 9.30769 18.102 9.30769 17.9583C9.30769 17.8147 9.36442 17.6769 9.4654 17.5753C9.56639 17.4737 9.70335 17.4167 9.84615 17.4167H14.1538C14.2967 17.4167 14.4336 17.4737 14.5346 17.5753C14.6356 17.6769 14.6923 17.8147 14.6923 17.9583ZM14.4527 10.4657L11.2219 8.29906C11.1408 8.24462 11.0465 8.21336 10.9491 8.20862C10.8517 8.20387 10.7549 8.22582 10.6689 8.27211C10.583 8.31841 10.5111 8.38732 10.461 8.47148C10.411 8.55565 10.3846 8.65191 10.3846 8.75V13.0833C10.3846 13.1814 10.411 13.2777 10.461 13.3619C10.5111 13.446 10.583 13.5149 10.6689 13.5612C10.7549 13.6075 10.8517 13.6295 10.9491 13.6247C11.0465 13.62 11.1408 13.5887 11.2219 13.5343L14.4527 11.3676C14.5266 11.3182 14.5871 11.2511 14.629 11.1725C14.6709 11.0938 14.6928 11.0059 14.6928 10.9167C14.6928 10.8274 14.6709 10.7396 14.629 10.6609C14.5871 10.5822 14.5266 10.5152 14.4527 10.4657ZM11.4615 12.0711V9.76562L13.1833 10.9167L11.4615 12.0711Z" fill="#E2E2E2"/>
</svg>
