<svg width="24" height="24" viewBox="0 0 24 24" fill="none" xmlns="http://www.w3.org/2000/svg">
<path d="M11.4991 9.01788C10.9094 9.01788 10.3331 9.19272 9.84281 9.5203C9.35255 9.84787 8.97044 10.3135 8.74481 10.8582C8.51917 11.403 8.46013 12.0024 8.57516 12.5807C8.69019 13.159 8.97412 13.6902 9.39105 14.1071C9.80797 14.524 10.3392 14.8079 10.9175 14.923C11.4958 15.038 12.0952 14.979 12.6399 14.7533C13.1847 14.5277 13.6503 14.1456 13.9778 13.6553C14.3054 13.1651 14.4803 12.5887 14.4803 11.9991C14.4794 11.2087 14.1651 10.4509 13.6062 9.89195C13.0473 9.33305 12.2895 9.0187 11.4991 9.01788ZM11.4991 13.9865C11.106 13.9865 10.7217 13.87 10.3949 13.6516C10.0681 13.4332 9.81332 13.1228 9.66289 12.7596C9.51247 12.3965 9.47311 11.9969 9.54979 11.6113C9.62648 11.2258 9.81577 10.8717 10.0937 10.5937C10.3717 10.3158 10.7258 10.1265 11.1113 10.0498C11.4969 9.97311 11.8965 10.0125 12.2596 10.1629C12.6228 10.3133 12.9332 10.5681 13.1516 10.8949C13.37 11.2217 13.4865 11.606 13.4865 11.9991C13.4865 12.5262 13.2771 13.0317 12.9044 13.4044C12.5317 13.7771 12.0262 13.9865 11.4991 13.9865ZM16.9646 12.1332C16.9671 12.0438 16.9671 11.9544 16.9646 11.8649L17.8912 10.7072C17.9398 10.6464 17.9735 10.5751 17.9894 10.4989C18.0054 10.4228 18.0032 10.3439 17.9832 10.2687C17.8313 9.69771 17.604 9.14945 17.3074 8.63839C17.2686 8.57151 17.2147 8.51462 17.15 8.47225C17.0853 8.42987 17.0116 8.40319 16.9348 8.39431L15.4616 8.23034C15.4003 8.16575 15.3382 8.10364 15.2752 8.04402L15.1013 6.56709C15.0924 6.4902 15.0656 6.41647 15.0231 6.35178C14.9806 6.28708 14.9236 6.2332 14.8566 6.19444C14.3454 5.8984 13.7972 5.67138 13.2263 5.51932C13.1511 5.49932 13.0722 5.49727 12.996 5.51335C12.9199 5.52942 12.8485 5.56317 12.7878 5.61186L11.6332 6.53355C11.5438 6.53355 11.4544 6.53355 11.3649 6.53355L10.2072 5.60876C10.1464 5.56017 10.0751 5.52654 9.99892 5.51057C9.92276 5.4946 9.84391 5.49675 9.76873 5.51684C9.1978 5.66902 8.64958 5.89624 8.13839 6.19257C8.07151 6.23141 8.01462 6.28532 7.97225 6.35001C7.92987 6.4147 7.90319 6.4884 7.89431 6.56522L7.73034 8.04091C7.66575 8.10261 7.60364 8.16472 7.54402 8.22724L6.06709 8.39679C5.9902 8.40574 5.91647 8.43252 5.85178 8.47501C5.78708 8.51749 5.7332 8.5745 5.69444 8.6415C5.3984 9.15275 5.17138 9.70097 5.01932 10.2718C4.99932 10.3471 4.99727 10.4259 5.01335 10.5021C5.02942 10.5783 5.06317 10.6496 5.11186 10.7103L6.03355 11.8649C6.03355 11.9544 6.03355 12.0438 6.03355 12.1332L5.10876 13.2909C5.06017 13.3517 5.02654 13.4231 5.01057 13.4992C4.9946 13.5754 4.99675 13.6542 5.01684 13.7294C5.16875 14.3004 5.39599 14.8487 5.69257 15.3597C5.73141 15.4266 5.78532 15.4835 5.85001 15.5259C5.9147 15.5683 5.9884 15.595 6.06522 15.6038L7.53843 15.7678C7.60012 15.8324 7.66223 15.8945 7.72475 15.9541L7.89679 17.4311C7.90574 17.5079 7.93252 17.5817 7.97501 17.6464C8.01749 17.7111 8.0745 17.7649 8.1415 17.8037C8.65275 18.0997 9.20097 18.3268 9.77184 18.4788C9.84707 18.4988 9.92594 18.5009 10.0021 18.4848C10.0783 18.4687 10.1496 18.435 10.2103 18.3863L11.3649 17.4646C11.4544 17.4671 11.5438 17.4671 11.6332 17.4646L12.7909 18.3912C12.8517 18.4398 12.9231 18.4735 12.9992 18.4894C13.0754 18.5054 13.1542 18.5032 13.2294 18.4832C13.8004 18.3313 14.3487 18.104 14.8597 17.8074C14.9266 17.7686 14.9835 17.7147 15.0259 17.65C15.0683 17.5853 15.095 17.5116 15.1038 17.4348L15.2678 15.9616C15.3324 15.9003 15.3945 15.8382 15.4541 15.7752L16.9311 15.6013C17.0079 15.5924 17.0817 15.5656 17.1464 15.5231C17.2111 15.4806 17.2649 15.4236 17.3037 15.3566C17.5997 14.8454 17.8268 14.2972 17.9788 13.7263C17.9988 13.6511 18.0009 13.5722 17.9848 13.496C17.9687 13.4199 17.935 13.3485 17.8863 13.2878L16.9646 12.1332ZM15.9646 11.7295C15.9752 11.9091 15.9752 12.0891 15.9646 12.2686C15.9572 12.3915 15.9958 12.5128 16.0727 12.609L16.954 13.7101C16.8529 14.0315 16.7234 14.3433 16.5671 14.6418L15.1635 14.8008C15.0412 14.8143 14.9284 14.8728 14.8467 14.9647C14.7271 15.0992 14.5998 15.2265 14.4654 15.3461C14.3734 15.4277 14.315 15.5406 14.3014 15.6628L14.1455 17.0652C13.8471 17.2216 13.5353 17.3511 13.2139 17.4522L12.1121 16.5709C12.0239 16.5004 11.9144 16.4621 11.8015 16.4622H11.7717C11.5922 16.4727 11.4122 16.4727 11.2326 16.4622C11.1097 16.4548 10.9884 16.4933 10.8923 16.5702L9.78799 17.4522C9.4666 17.351 9.15483 17.2216 8.85636 17.0652L8.69737 15.6635C8.6838 15.5412 8.62538 15.4284 8.5334 15.3467C8.39894 15.2271 8.27161 15.0998 8.15206 14.9654C8.07041 14.8734 7.95754 14.815 7.83531 14.8014L6.4329 14.6449C6.27651 14.3464 6.14702 14.0347 6.04597 13.7133L6.92728 12.6115C7.00424 12.5153 7.04275 12.394 7.03535 12.2711C7.02479 12.0916 7.02479 11.9115 7.03535 11.732C7.04275 11.6091 7.00424 11.4878 6.92728 11.3917L6.04597 10.288C6.1471 9.9666 6.27658 9.65483 6.4329 9.35636L7.83469 9.19737C7.95692 9.1838 8.06979 9.12538 8.15144 9.0334C8.27099 8.89894 8.39832 8.77161 8.53278 8.65206C8.62512 8.57035 8.68378 8.45723 8.69737 8.33469L8.85326 6.9329C9.15169 6.77651 9.46347 6.64702 9.78488 6.54597L10.8867 7.42728C10.9828 7.50424 11.1041 7.54275 11.227 7.53535C11.4066 7.52479 11.5866 7.52479 11.7661 7.53535C11.8891 7.54275 12.0103 7.50424 12.1065 7.42728L13.2101 6.54597C13.5315 6.6471 13.8433 6.77658 14.1418 6.9329L14.3008 8.33469C14.3143 8.45692 14.3728 8.56979 14.4647 8.65144C14.5992 8.77099 14.7265 8.89832 14.8461 9.03278C14.9277 9.12476 15.0406 9.18318 15.1628 9.19675L16.5652 9.35264C16.7216 9.65107 16.8511 9.96284 16.9522 10.2843L16.0709 11.3861C15.9932 11.483 15.9546 11.6055 15.9628 11.7295H15.9646Z" fill="#E2E2E2"/>
</svg>
