<svg width="72" height="24" viewBox="0 0 72 24" fill="none" xmlns="http://www.w3.org/2000/svg">
<g filter="url(#filter0_i_9665_7718)">
<path fill-rule="evenodd" clip-rule="evenodd" d="M16 18C19.3137 18 22 15.3137 22 12C22 8.68629 19.3137 6 16 6C12.6863 6 10 8.68629 10 12C10 15.3137 12.6863 18 16 18Z" fill="#ED6A5E"/>
</g>
<path d="M16 6.25C19.1756 6.25 21.75 8.82436 21.75 12C21.75 15.1756 19.1756 17.75 16 17.75C12.8244 17.75 10.25 15.1756 10.25 12C10.25 8.82436 12.8244 6.25 16 6.25Z" stroke="#CE5347" stroke-width="0.5"/>
<g filter="url(#filter1_i_9665_7718)">
<path fill-rule="evenodd" clip-rule="evenodd" d="M36 18C39.3137 18 42 15.3137 42 12C42 8.68629 39.3137 6 36 6C32.6863 6 30 8.68629 30 12C30 15.3137 32.6863 18 36 18Z" fill="#F6BE4F"/>
</g>
<path d="M36 6.25C39.1756 6.25 41.75 8.82436 41.75 12C41.75 15.1756 39.1756 17.75 36 17.75C32.8244 17.75 30.25 15.1756 30.25 12C30.25 8.82436 32.8244 6.25 36 6.25Z" stroke="#D6A243" stroke-width="0.5"/>
<g filter="url(#filter2_i_9665_7718)">
<path fill-rule="evenodd" clip-rule="evenodd" d="M56 18C59.3137 18 62 15.3137 62 12C62 8.68629 59.3137 6 56 6C52.6863 6 50 8.68629 50 12C50 15.3137 52.6863 18 56 18Z" fill="#62C554"/>
</g>
<path d="M56 6.25C59.1756 6.25 61.75 8.82436 61.75 12C61.75 15.1756 59.1756 17.75 56 17.75C52.8244 17.75 50.25 15.1756 50.25 12C50.25 8.82436 52.8244 6.25 56 6.25Z" stroke="#58A942" stroke-width="0.5"/>
<defs>
<filter id="filter0_i_9665_7718" x="10" y="6" width="12" height="12" filterUnits="userSpaceOnUse" color-interpolation-filters="sRGB">
<feFlood flood-opacity="0" result="BackgroundImageFix"/>
<feBlend mode="normal" in="SourceGraphic" in2="BackgroundImageFix" result="shape"/>
<feColorMatrix in="SourceAlpha" type="matrix" values="0 0 0 0 0 0 0 0 0 0 0 0 0 0 0 0 0 0 127 0" result="hardAlpha"/>
<feOffset/>
<feGaussianBlur stdDeviation="3"/>
<feComposite in2="hardAlpha" operator="arithmetic" k2="-1" k3="1"/>
<feColorMatrix type="matrix" values="0 0 0 0 0.92549 0 0 0 0 0.427451 0 0 0 0 0.384314 0 0 0 1 0"/>
<feBlend mode="normal" in2="shape" result="effect1_innerShadow_9665_7718"/>
</filter>
<filter id="filter1_i_9665_7718" x="30" y="6" width="12" height="12" filterUnits="userSpaceOnUse" color-interpolation-filters="sRGB">
<feFlood flood-opacity="0" result="BackgroundImageFix"/>
<feBlend mode="normal" in="SourceGraphic" in2="BackgroundImageFix" result="shape"/>
<feColorMatrix in="SourceAlpha" type="matrix" values="0 0 0 0 0 0 0 0 0 0 0 0 0 0 0 0 0 0 127 0" result="hardAlpha"/>
<feOffset/>
<feGaussianBlur stdDeviation="3"/>
<feComposite in2="hardAlpha" operator="arithmetic" k2="-1" k3="1"/>
<feColorMatrix type="matrix" values="0 0 0 0 0.960784 0 0 0 0 0.768627 0 0 0 0 0.317647 0 0 0 1 0"/>
<feBlend mode="normal" in2="shape" result="effect1_innerShadow_9665_7718"/>
</filter>
<filter id="filter2_i_9665_7718" x="50" y="6" width="12" height="12" filterUnits="userSpaceOnUse" color-interpolation-filters="sRGB">
<feFlood flood-opacity="0" result="BackgroundImageFix"/>
<feBlend mode="normal" in="SourceGraphic" in2="BackgroundImageFix" result="shape"/>
<feColorMatrix in="SourceAlpha" type="matrix" values="0 0 0 0 0 0 0 0 0 0 0 0 0 0 0 0 0 0 127 0" result="hardAlpha"/>
<feOffset/>
<feGaussianBlur stdDeviation="3"/>
<feComposite in2="hardAlpha" operator="arithmetic" k2="-1" k3="1"/>
<feColorMatrix type="matrix" values="0 0 0 0 0.407843 0 0 0 0 0.8 0 0 0 0 0.345098 0 0 0 1 0"/>
<feBlend mode="normal" in2="shape" result="effect1_innerShadow_9665_7718"/>
</filter>
</defs>
</svg>
